<svg width="16" height="16" viewBox="0 0 16 16" fill="none" xmlns="http://www.w3.org/2000/svg">
<path d="M5.99386 13.25V8.75C5.99386 7.92157 5.29803 7.25 4.43967 7.25H2.88549C2.02713 7.25 1.3313 7.92157 1.3313 8.75V13.25C1.3313 14.0784 2.02713 14.75 2.88549 14.75H4.43967C5.29803 14.75 5.99386 14.0784 5.99386 13.25ZM5.99386 13.25V5.75C5.99386 4.92157 6.68969 4.25 7.54805 4.25H9.10224C9.96059 4.25 10.6564 4.92157 10.6564 5.75V13.25M5.99386 13.25C5.99386 14.0784 6.68969 14.75 7.54805 14.75H9.10224C9.96059 14.75 10.6564 14.0784 10.6564 13.25M10.6564 13.25V2.75C10.6564 1.92157 11.3523 1.25 12.2106 1.25H13.7648C14.6232 1.25 15.319 1.92157 15.319 2.75V13.25C15.319 14.0784 14.6232 14.75 13.7648 14.75H12.2106C11.3523 14.75 10.6564 14.0784 10.6564 13.25Z" stroke="#3F3F46" stroke-width="1.2" stroke-linecap="round" stroke-linejoin="round"/>
</svg>
