<svg width="30" height="30" viewBox="0 0 30 30" fill="none" xmlns="http://www.w3.org/2000/svg">
<path d="M11.25 27.5H18.75C25 27.5 27.5 25 27.5 18.75V11.25C27.5 5 25 2.5 18.75 2.5H11.25C5 2.5 2.5 5 2.5 11.25V18.75C2.5 25 5 27.5 11.25 27.5Z" stroke="black" stroke-opacity="0.6" stroke-width="1.5" stroke-linecap="round" stroke-linejoin="round"/>
<path d="M17.9389 13.6379C17.8139 14.5254 17.2889 15.2754 16.5639 15.7254V18.2004C16.5639 19.0629 15.8639 19.7629 15.0014 19.7629C14.1389 19.7629 13.4389 19.0629 13.4389 18.2004V15.7254C12.7139 15.2754 12.1889 14.5254 12.0639 13.6379C12.0389 13.5004 12.0264 13.3504 12.0264 13.2004C12.0264 11.3004 13.8264 9.82539 15.8014 10.3504C16.8014 10.6129 17.6139 11.4254 17.8764 12.4254C17.9889 12.8379 18.0014 13.2504 17.9389 13.6379Z" stroke="black" stroke-opacity="0.6" stroke-width="1.5" stroke-miterlimit="10"/>
<path d="M27.5019 13.6377H17.9395" stroke="black" stroke-opacity="0.6" stroke-width="1.5" stroke-miterlimit="10"/>
<path d="M12.0625 13.6377H2.5" stroke="black" stroke-opacity="0.6" stroke-width="1.5" stroke-miterlimit="10"/>
</svg>
