<svg width="30" height="30" viewBox="0 0 30 30" fill="none" xmlns="http://www.w3.org/2000/svg">
<path d="M21.25 26.25H8.75C3.75 26.25 2.5 25 2.5 20V10C2.5 5 3.75 3.75 8.75 3.75H21.25C26.25 3.75 27.5 5 27.5 10V20C27.5 25 26.25 26.25 21.25 26.25Z" stroke="black" stroke-opacity="0.6" stroke-width="1.5" stroke-linecap="round" stroke-linejoin="round"/>
<path d="M17.5 10H23.75" stroke="black" stroke-opacity="0.6" stroke-width="1.5" stroke-linecap="round" stroke-linejoin="round"/>
<path d="M18.75 15H23.75" stroke="black" stroke-opacity="0.6" stroke-width="1.5" stroke-linecap="round" stroke-linejoin="round"/>
<path d="M21.25 20H23.75" stroke="black" stroke-opacity="0.6" stroke-width="1.5" stroke-linecap="round" stroke-linejoin="round"/>
<path d="M10.6258 14.1124C11.8753 14.1124 12.8883 13.0994 12.8883 11.8499C12.8883 10.6004 11.8753 9.5874 10.6258 9.5874C9.37624 9.5874 8.36328 10.6004 8.36328 11.8499C8.36328 13.0994 9.37624 14.1124 10.6258 14.1124Z" stroke="black" stroke-opacity="0.6" stroke-width="1.5" stroke-linecap="round" stroke-linejoin="round"/>
<path d="M15 20.4122C14.825 18.5997 13.3875 17.1747 11.575 17.0122C10.95 16.9497 10.3125 16.9497 9.675 17.0122C7.8625 17.1872 6.425 18.5997 6.25 20.4122" stroke="black" stroke-opacity="0.6" stroke-width="1.5" stroke-linecap="round" stroke-linejoin="round"/>
</svg>
